<svg width="15" height="15" viewBox="0 0 15 15" fill="none" xmlns="http://www.w3.org/2000/svg">
<path d="M2.14286 0C0.95939 0 0 0.95939 0 2.14286V4.28571C0 5.46918 0.95939 6.42857 2.14286 6.42857H4.28571C5.46918 6.42857 6.42857 5.46918 6.42857 4.28571V2.14286C6.42857 0.95939 5.46918 0 4.28571 0H2.14286Z" fill="white"/>
<path d="M2.14286 8.57143C0.95939 8.57143 0 9.53082 0 10.7143V12.8571C0 14.0406 0.95939 15 2.14286 15H4.28571C5.46918 15 6.42857 14.0406 6.42857 12.8571V10.7143C6.42857 9.53082 5.46918 8.57143 4.28571 8.57143H2.14286Z" fill="white"/>
<path d="M8.57143 2.14286C8.57143 0.95939 9.53082 0 10.7143 0H12.8571C14.0406 0 15 0.95939 15 2.14286V4.28571C15 5.46918 14.0406 6.42857 12.8571 6.42857H10.7143C9.53082 6.42857 8.57143 5.46918 8.57143 4.28571V2.14286Z" fill="white"/>
<path d="M11.7857 8.57143C12.3774 8.57143 12.8571 9.05112 12.8571 9.64286V10.7143H13.9286C14.5203 10.7143 15 11.194 15 11.7857C15 12.3774 14.5203 12.8571 13.9286 12.8571H12.8571V13.9286C12.8571 14.5203 12.3774 15 11.7857 15C11.194 15 10.7143 14.5203 10.7143 13.9286V12.8571H9.64286C9.05112 12.8571 8.57143 12.3774 8.57143 11.7857C8.57143 11.194 9.05112 10.7143 9.64286 10.7143H10.7143V9.64286C10.7143 9.05112 11.194 8.57143 11.7857 8.57143Z" fill="white"/>
</svg>
