<svg width="20" height="20" viewBox="0 0 20 20" fill="none" xmlns="http://www.w3.org/2000/svg">
<path fill-rule="evenodd" clip-rule="evenodd" d="M9.99984 1.66667C5.3915 1.66667 1.6665 5.39167 1.6665 10C1.6665 14.6083 5.3915 18.3333 9.99984 18.3333C14.6082 18.3333 18.3332 14.6083 18.3332 10C18.3332 5.39167 14.6082 1.66667 9.99984 1.66667ZM12.1582 6.66667L9.99984 8.82501L7.8415 6.66667L6.6665 7.84167L8.82484 10L6.6665 12.1583L7.8415 13.3333L9.99984 11.175L12.1582 13.3333L13.3332 12.1583L11.1748 10L13.3332 7.84167L12.1582 6.66667ZM3.33317 10C3.33317 13.675 6.32484 16.6667 9.99984 16.6667C13.6748 16.6667 16.6665 13.675 16.6665 10C16.6665 6.32501 13.6748 3.33334 9.99984 3.33334C6.32484 3.33334 3.33317 6.32501 3.33317 10Z" fill="white"/>
</svg>
