<svg width="506" height="42" viewBox="0 0 506 42" fill="none" xmlns="http://www.w3.org/2000/svg">
<path d="M26.6844 34.18H12.2744L9.96435 41H0.119349L14.0893 2.39H24.9794L38.9494 41H28.9943L26.6844 34.18ZM24.2644 26.92L19.4794 12.785L14.7493 26.92H24.2644ZM41.8811 25.6C41.8811 22.4467 42.4678 19.6783 43.6411 17.295C44.8511 14.9117 46.4828 13.0783 48.5361 11.795C50.5894 10.5117 52.8811 9.87 55.4111 9.87C57.4278 9.87 59.2611 10.2917 60.9111 11.135C62.5978 11.9783 63.9178 13.115 64.8711 14.545V0.299999H74.2761V41H64.8711V36.6C63.9911 38.0667 62.7261 39.24 61.0761 40.12C59.4628 41 57.5744 41.44 55.4111 41.44C52.8811 41.44 50.5894 40.7983 48.5361 39.515C46.4828 38.195 44.8511 36.3433 43.6411 33.96C42.4678 31.54 41.8811 28.7533 41.8811 25.6ZM64.8711 25.655C64.8711 23.3083 64.2111 21.4567 62.8911 20.1C61.6078 18.7433 60.0311 18.065 58.1611 18.065C56.2911 18.065 54.6961 18.7433 53.3761 20.1C52.0928 21.42 51.4511 23.2533 51.4511 25.6C51.4511 27.9467 52.0928 29.8167 53.3761 31.21C54.6961 32.5667 56.2911 33.245 58.1611 33.245C60.0311 33.245 61.6078 32.5667 62.8911 31.21C64.2111 29.8533 64.8711 28.0017 64.8711 25.655ZM95.4352 32.2L102.09 10.31H112.1L101.21 41H89.6052L78.7152 10.31H88.7802L95.4352 32.2ZM114.739 25.6C114.739 22.4467 115.326 19.6783 116.499 17.295C117.709 14.9117 119.341 13.0783 121.394 11.795C123.447 10.5117 125.739 9.87 128.269 9.87C130.432 9.87 132.321 10.31 133.934 11.19C135.584 12.07 136.849 13.225 137.729 14.655V10.31H147.134V41H137.729V36.655C136.812 38.085 135.529 39.24 133.879 40.12C132.266 41 130.377 41.44 128.214 41.44C125.721 41.44 123.447 40.7983 121.394 39.515C119.341 38.195 117.709 36.3433 116.499 33.96C115.326 31.54 114.739 28.7533 114.739 25.6ZM137.729 25.655C137.729 23.3083 137.069 21.4567 135.749 20.1C134.466 18.7433 132.889 18.065 131.019 18.065C129.149 18.065 127.554 18.7433 126.234 20.1C124.951 21.42 124.309 23.2533 124.309 25.6C124.309 27.9467 124.951 29.8167 126.234 31.21C127.554 32.5667 129.149 33.245 131.019 33.245C132.889 33.245 134.466 32.5667 135.749 31.21C137.069 29.8533 137.729 28.0017 137.729 25.655ZM173.188 9.98C176.781 9.98 179.641 11.1533 181.768 13.5C183.931 15.81 185.013 19 185.013 23.07V41H175.663V24.335C175.663 22.2817 175.131 20.6867 174.068 19.55C173.005 18.4133 171.575 17.845 169.778 17.845C167.981 17.845 166.551 18.4133 165.488 19.55C164.425 20.6867 163.893 22.2817 163.893 24.335V41H154.488V10.31H163.893V14.38C164.846 13.0233 166.13 11.96 167.743 11.19C169.356 10.3833 171.171 9.98 173.188 9.98ZM190.229 25.655C190.229 22.465 190.87 19.6783 192.154 17.295C193.474 14.9117 195.289 13.0783 197.599 11.795C199.945 10.5117 202.622 9.87 205.629 9.87C209.479 9.87 212.687 10.8783 215.254 12.895C217.857 14.9117 219.562 17.7533 220.369 21.42H210.359C209.515 19.0733 207.884 17.9 205.464 17.9C203.74 17.9 202.365 18.5783 201.339 19.935C200.312 21.255 199.799 23.1617 199.799 25.655C199.799 28.1483 200.312 30.0733 201.339 31.43C202.365 32.75 203.74 33.41 205.464 33.41C207.884 33.41 209.515 32.2367 210.359 29.89H220.369C219.562 33.4833 217.857 36.3067 215.254 38.36C212.65 40.4133 209.442 41.44 205.629 41.44C202.622 41.44 199.945 40.7983 197.599 39.515C195.289 38.2317 193.474 36.3983 192.154 34.015C190.87 31.6317 190.229 28.845 190.229 25.655ZM254.879 25.16C254.879 26.04 254.824 26.9567 254.714 27.91H233.429C233.576 29.8167 234.181 31.2833 235.244 32.31C236.344 33.3 237.683 33.795 239.259 33.795C241.606 33.795 243.238 32.805 244.154 30.825H254.164C253.651 32.8417 252.716 34.6567 251.359 36.27C250.039 37.8833 248.371 39.1483 246.354 40.065C244.338 40.9817 242.083 41.44 239.589 41.44C236.583 41.44 233.906 40.7983 231.559 39.515C229.213 38.2317 227.379 36.3983 226.059 34.015C224.739 31.6317 224.079 28.845 224.079 25.655C224.079 22.465 224.721 19.6783 226.004 17.295C227.324 14.9117 229.158 13.0783 231.504 11.795C233.851 10.5117 236.546 9.87 239.589 9.87C242.559 9.87 245.199 10.4933 247.509 11.74C249.819 12.9867 251.616 14.765 252.899 17.075C254.219 19.385 254.879 22.08 254.879 25.16ZM245.254 22.685C245.254 21.0717 244.704 19.7883 243.604 18.835C242.504 17.8817 241.129 17.405 239.479 17.405C237.903 17.405 236.564 17.8633 235.464 18.78C234.401 19.6967 233.741 20.9983 233.484 22.685H245.254ZM258.521 25.6C258.521 22.4467 259.108 19.6783 260.281 17.295C261.491 14.9117 263.123 13.0783 265.176 11.795C267.229 10.5117 269.521 9.87 272.051 9.87C274.068 9.87 275.901 10.2917 277.551 11.135C279.238 11.9783 280.558 13.115 281.511 14.545V0.299999H290.916V41H281.511V36.6C280.631 38.0667 279.366 39.24 277.716 40.12C276.103 41 274.214 41.44 272.051 41.44C269.521 41.44 267.229 40.7983 265.176 39.515C263.123 38.195 261.491 36.3433 260.281 33.96C259.108 31.54 258.521 28.7533 258.521 25.6ZM281.511 25.655C281.511 23.3083 280.851 21.4567 279.531 20.1C278.248 18.7433 276.671 18.065 274.801 18.065C272.931 18.065 271.336 18.7433 270.016 20.1C268.733 21.42 268.091 23.2533 268.091 25.6C268.091 27.9467 268.733 29.8167 270.016 31.21C271.336 32.5667 272.931 33.245 274.801 33.245C276.671 33.245 278.248 32.5667 279.531 31.21C280.851 29.8533 281.511 28.0017 281.511 25.655ZM324.445 41.385C321.622 41.385 319.092 40.9267 316.855 40.01C314.619 39.0933 312.822 37.7367 311.465 35.94C310.145 34.1433 309.449 31.98 309.375 29.45H319.385C319.532 30.88 320.027 31.98 320.87 32.75C321.714 33.4833 322.814 33.85 324.17 33.85C325.564 33.85 326.664 33.5383 327.47 32.915C328.277 32.255 328.68 31.3567 328.68 30.22C328.68 29.2667 328.35 28.4783 327.69 27.855C327.067 27.2317 326.279 26.7183 325.325 26.315C324.409 25.9117 323.089 25.4533 321.365 24.94C318.872 24.17 316.837 23.4 315.26 22.63C313.684 21.86 312.327 20.7233 311.19 19.22C310.054 17.7167 309.485 15.755 309.485 13.335C309.485 9.74167 310.787 6.93667 313.39 4.92C315.994 2.86667 319.385 1.84 323.565 1.84C327.819 1.84 331.247 2.86667 333.85 4.92C336.454 6.93667 337.847 9.76 338.03 13.39H327.855C327.782 12.1433 327.324 11.1717 326.48 10.475C325.637 9.74166 324.555 9.375 323.235 9.375C322.099 9.375 321.182 9.68666 320.485 10.31C319.789 10.8967 319.44 11.7583 319.44 12.895C319.44 14.1417 320.027 15.1133 321.2 15.81C322.374 16.5067 324.207 17.2583 326.7 18.065C329.194 18.9083 331.21 19.715 332.75 20.485C334.327 21.255 335.684 22.3733 336.82 23.84C337.957 25.3067 338.525 27.195 338.525 29.505C338.525 31.705 337.957 33.7033 336.82 35.5C335.72 37.2967 334.107 38.7267 331.98 39.79C329.854 40.8533 327.342 41.385 324.445 41.385ZM373.793 25.16C373.793 26.04 373.738 26.9567 373.628 27.91H352.343C352.49 29.8167 353.095 31.2833 354.158 32.31C355.258 33.3 356.597 33.795 358.173 33.795C360.52 33.795 362.152 32.805 363.068 30.825H373.078C372.565 32.8417 371.63 34.6567 370.273 36.27C368.953 37.8833 367.285 39.1483 365.268 40.065C363.252 40.9817 360.997 41.44 358.503 41.44C355.497 41.44 352.82 40.7983 350.473 39.515C348.127 38.2317 346.293 36.3983 344.973 34.015C343.653 31.6317 342.993 28.845 342.993 25.655C342.993 22.465 343.635 19.6783 344.918 17.295C346.238 14.9117 348.072 13.0783 350.418 11.795C352.765 10.5117 355.46 9.87 358.503 9.87C361.473 9.87 364.113 10.4933 366.423 11.74C368.733 12.9867 370.53 14.765 371.813 17.075C373.133 19.385 373.793 22.08 373.793 25.16ZM364.168 22.685C364.168 21.0717 363.618 19.7883 362.518 18.835C361.418 17.8817 360.043 17.405 358.393 17.405C356.817 17.405 355.478 17.8633 354.378 18.78C353.315 19.6967 352.655 20.9983 352.398 22.685H364.168ZM377.435 25.6C377.435 22.4467 378.021 19.6783 379.195 17.295C380.405 14.9117 382.036 13.0783 384.09 11.795C386.143 10.5117 388.435 9.87 390.965 9.87C393.128 9.87 395.016 10.31 396.63 11.19C398.28 12.07 399.545 13.225 400.425 14.655V10.31H409.83V41H400.425V36.655C399.508 38.085 398.225 39.24 396.575 40.12C394.961 41 393.073 41.44 390.91 41.44C388.416 41.44 386.143 40.7983 384.09 39.515C382.036 38.195 380.405 36.3433 379.195 33.96C378.021 31.54 377.435 28.7533 377.435 25.6ZM400.425 25.655C400.425 23.3083 399.765 21.4567 398.445 20.1C397.161 18.7433 395.585 18.065 393.715 18.065C391.845 18.065 390.25 18.7433 388.93 20.1C387.646 21.42 387.005 23.2533 387.005 25.6C387.005 27.9467 387.646 29.8167 388.93 31.21C390.25 32.5667 391.845 33.245 393.715 33.245C395.585 33.245 397.161 32.5667 398.445 31.21C399.765 29.8533 400.425 28.0017 400.425 25.655ZM426.589 15.425C427.689 13.7383 429.064 12.4183 430.714 11.465C432.364 10.475 434.197 9.98 436.214 9.98V19.935H433.629C431.282 19.935 429.522 20.4483 428.349 21.475C427.176 22.465 426.589 24.225 426.589 26.755V41H417.184V10.31H426.589V15.425ZM439.389 25.655C439.389 22.465 440.031 19.6783 441.314 17.295C442.634 14.9117 444.449 13.0783 446.759 11.795C449.106 10.5117 451.783 9.87 454.789 9.87C458.639 9.87 461.848 10.8783 464.414 12.895C467.018 14.9117 468.723 17.7533 469.529 21.42H459.519C458.676 19.0733 457.044 17.9 454.624 17.9C452.901 17.9 451.526 18.5783 450.499 19.935C449.473 21.255 448.959 23.1617 448.959 25.655C448.959 28.1483 449.473 30.0733 450.499 31.43C451.526 32.75 452.901 33.41 454.624 33.41C457.044 33.41 458.676 32.2367 459.519 29.89H469.529C468.723 33.4833 467.018 36.3067 464.414 38.36C461.811 40.4133 458.603 41.44 454.789 41.44C451.783 41.44 449.106 40.7983 446.759 39.515C444.449 38.2317 442.634 36.3983 441.314 34.015C440.031 31.6317 439.389 28.845 439.389 25.655ZM493.975 9.98C497.495 9.98 500.318 11.1533 502.445 13.5C504.572 15.81 505.635 19 505.635 23.07V41H496.285V24.335C496.285 22.2817 495.753 20.6867 494.69 19.55C493.627 18.4133 492.197 17.845 490.4 17.845C488.603 17.845 487.173 18.4133 486.11 19.55C485.047 20.6867 484.515 22.2817 484.515 24.335V41H475.11V0.299999H484.515V14.435C485.468 13.0783 486.77 11.9967 488.42 11.19C490.07 10.3833 491.922 9.98 493.975 9.98Z" fill="url(#paint0_linear_204_14889)"/>
<defs>
<linearGradient id="paint0_linear_204_14889" x1="-45" y1="-2.9999" x2="538" y2="47.0001" gradientUnits="userSpaceOnUse">
<stop stop-color="#130CB7"/>
<stop offset="0.367708" stop-color="#3855DE" stop-opacity="0.930753"/>
<stop offset="0.693628" stop-color="#2E6ACC" stop-opacity="0.869375"/>
<stop offset="1" stop-color="#52E5E7" stop-opacity="0.7"/>
</linearGradient>
</defs>
</svg>
