<svg width="24" height="19" viewBox="0 0 24 19" fill="none" xmlns="http://www.w3.org/2000/svg">
<path d="M20.3604 3.125H23.5645V5.20833H22.4965V16.6667H23.5645V18.75H0.067627V16.6667H1.13567V5.20833H0.067627V3.125H3.27175V1.04167C3.27175 0.765399 3.38427 0.500447 3.58457 0.305097C3.78487 0.109747 4.05653 0 4.33979 0H19.2924C19.5756 0 19.8473 0.109747 20.0476 0.305097C20.2479 0.500447 20.3604 0.765399 20.3604 1.04167V3.125ZM20.3604 5.20833H3.27175V16.6667H6.47587V9.375H8.61195V16.6667H10.748V9.375H12.8841V16.6667H15.0202V9.375H17.1563V16.6667H20.3604V5.20833ZM5.40783 2.08333V3.125H18.2243V2.08333H5.40783Z" fill="#217BF4"/>
</svg>
