<svg width="23" height="21" viewBox="0 0 23 21" fill="none" xmlns="http://www.w3.org/2000/svg">
<path d="M0.206543 18.8335H22.2666V20.9168H0.206543V18.8335ZM2.41255 10.5002H4.61855V17.7918H2.41255V10.5002ZM7.92756 10.5002H10.1336V17.7918H7.92756V10.5002ZM12.3396 10.5002H14.5456V17.7918H12.3396V10.5002ZM17.8546 10.5002H20.0606V17.7918H17.8546V10.5002ZM0.206543 5.29183L11.2366 0.0834961L22.2666 5.29183V9.4585H0.206543V5.29183ZM2.41255 6.57933V7.37516H20.0606V6.57933L11.2366 2.41266L2.41255 6.57933ZM11.2366 6.3335C10.944 6.3335 10.6635 6.22375 10.4566 6.0284C10.2498 5.83305 10.1336 5.5681 10.1336 5.29183C10.1336 5.01556 10.2498 4.75061 10.4566 4.55526C10.6635 4.35991 10.944 4.25016 11.2366 4.25016C11.5291 4.25016 11.8097 4.35991 12.0165 4.55526C12.2234 4.75061 12.3396 5.01556 12.3396 5.29183C12.3396 5.5681 12.2234 5.83305 12.0165 6.0284C11.8097 6.22375 11.5291 6.3335 11.2366 6.3335Z" fill="#217BF4"/>
</svg>
