<svg width="25" height="21" viewBox="0 0 25 21" fill="none" xmlns="http://www.w3.org/2000/svg">
<path d="M2.35171 18.5272V4.67307C2.35165 4.45925 2.42217 4.25058 2.5537 4.0754C2.68524 3.90023 2.87141 3.76704 3.08695 3.69391L13.8932 0.0314064C13.9776 0.00276666 14.0682 -0.00647597 14.1572 0.0044621C14.2463 0.0154002 14.3312 0.0461965 14.4048 0.0942399C14.4784 0.142283 14.5384 0.206157 14.5799 0.280446C14.6213 0.354735 14.643 0.437248 14.643 0.52099V5.68036L21.7004 7.87307C21.9229 7.94219 22.1166 8.07486 22.2537 8.25229C22.3909 8.42972 22.4647 8.6429 22.4647 8.86162V18.5272H24.6994V20.6106H0.116943V18.5272H2.35171ZM4.58648 18.5272H12.4082V2.7512L4.58648 5.40328V18.5272ZM20.2299 18.5272V9.61266L14.643 7.8762V18.5272H20.2299Z" fill="#217BF4"/>
</svg>
