<svg width="23" height="24" viewBox="0 0 23 24" fill="none" xmlns="http://www.w3.org/2000/svg">
<path d="M4.08598 8.64086C4.3569 8.64086 4.61672 8.77426 4.80829 9.01171C4.99986 9.24916 5.10748 9.57121 5.10748 9.90702C6.71239 9.90409 8.27103 10.5734 9.53056 11.8062H11.7472C13.1078 11.8062 14.3316 12.5394 15.1723 13.7042L18.3869 13.7055C19.3525 13.7052 20.2984 14.0441 21.1149 14.683C21.9313 15.3219 22.585 16.2346 23 17.3153C20.5842 21.267 16.6729 23.8347 12.2579 23.8347C9.40798 23.8347 6.99725 23.0712 5.04619 21.7354C4.97473 21.9799 4.84418 22.191 4.67234 22.3401C4.5005 22.4892 4.29574 22.569 4.08598 22.5686H1.0215C0.750578 22.5686 0.490757 22.4352 0.299189 22.1977C0.107622 21.9603 0 21.6382 0 21.3024V9.90702C0 9.57121 0.107622 9.24916 0.299189 9.01171C0.490757 8.77426 0.750578 8.64086 1.0215 8.64086H4.08598ZM5.1085 12.4393L5.10748 18.7967L5.15345 18.8385C6.98703 20.4338 9.37529 21.3024 12.2579 21.3024C15.3265 21.3024 18.1816 19.8387 20.2614 17.3393L20.3972 17.1709L20.2746 17.0443C19.7923 16.5761 19.2076 16.2982 18.5963 16.2467L18.3869 16.2378L16.2295 16.2365C16.3041 16.6442 16.3439 17.0684 16.3439 17.5039V18.7701H7.15047V16.2378L14.0864 16.2365L14.0517 16.1378C13.8559 15.6307 13.5548 15.1974 13.1793 14.8823C12.8037 14.5672 12.3672 14.3817 11.9147 14.3449L11.7472 14.3386H8.75422C8.27954 13.7368 7.71257 13.2588 7.08665 12.9326C6.46073 12.6064 5.78748 12.4387 5.1085 12.4393ZM3.06449 11.1732H2.04299V20.0363H3.06449V11.1732ZM12.9178 1.77197L13.2794 2.22146L13.6411 1.77324C13.8778 1.47724 14.1595 1.24212 14.4698 1.08139C14.7801 0.920659 15.1129 0.837479 15.4492 0.836625C15.7855 0.835772 16.1187 0.917262 16.4295 1.07642C16.7403 1.23557 17.0227 1.46926 17.2605 1.76406C17.4982 2.05885 17.6867 2.40896 17.815 2.79428C17.9433 3.1796 18.009 3.59253 18.0082 4.00938C18.0074 4.42623 17.9402 4.83878 17.8104 5.22335C17.6807 5.60792 17.4909 5.95694 17.252 6.25036L13.2794 11.1732L9.30583 6.24783C9.06702 5.95432 8.87734 5.60524 8.74766 5.22063C8.61799 4.83601 8.55088 4.42343 8.55019 4.00658C8.54951 3.58973 8.61525 3.17682 8.74365 2.79155C8.87205 2.40628 9.06058 2.05624 9.29842 1.76152C9.53625 1.4668 9.81871 1.23322 10.1296 1.07417C10.4404 0.915127 10.7736 0.833754 11.1099 0.834725C11.4462 0.835697 11.779 0.918993 12.0893 1.07983C12.3995 1.24067 12.6811 1.47589 12.9178 1.77197ZM10.7523 3.56358C10.6676 3.66794 10.6151 3.80577 10.6039 3.95311C10.5927 4.10045 10.6235 4.248 10.691 4.37012L10.7502 4.45749L13.2794 7.58995L15.8087 4.45749C15.8933 4.35274 15.9456 4.21451 15.9564 4.06689C15.9672 3.91927 15.9359 3.77163 15.8679 3.64968L15.8087 3.56105C15.724 3.45637 15.6124 3.39181 15.4934 3.37863C15.3743 3.36544 15.2552 3.40445 15.157 3.48888L15.0854 3.56232L13.2784 5.80088L11.4734 3.55978L11.404 3.48888C11.3056 3.40462 11.1865 3.36581 11.0674 3.37923C10.9483 3.39265 10.8368 3.45871 10.7523 3.56358Z" fill="#217BF4"/>
</svg>
