<svg width="35" height="35" viewBox="0 0 35 35" fill="none" xmlns="http://www.w3.org/2000/svg">
<g clip-path="url(#clip0_1235_477)">
<circle cx="17.5" cy="17.5" r="17.5" fill="url(#paint0_linear_1235_477)"/>
<g clip-path="url(#clip1_1235_477)">
<path d="M18 16C19.3261 16 20.5979 16.5268 21.5355 17.4645C22.4732 18.4021 23 19.6739 23 21V27H13V21C13 19.6739 13.5268 18.4021 14.4645 17.4645C15.4021 16.5268 16.6739 16 18 16ZM11.288 19.006C11.1289 19.5428 11.0348 20.0968 11.008 20.656L11 21V27H8V22.5C7.9998 21.6376 8.31803 20.8054 8.89363 20.1632C9.46924 19.521 10.2617 19.1139 11.119 19.02L11.289 19.006H11.288ZM24.712 19.006C25.6019 19.0602 26.4376 19.452 27.0486 20.1012C27.6596 20.7505 27.9999 21.6084 28 22.5V27H25V21C25 20.307 24.9 19.638 24.712 19.006ZM11.5 13C12.163 13 12.7989 13.2634 13.2678 13.7322C13.7366 14.2011 14 14.837 14 15.5C14 16.163 13.7366 16.7989 13.2678 17.2678C12.7989 17.7366 12.163 18 11.5 18C10.837 18 10.2011 17.7366 9.73223 17.2678C9.26339 16.7989 9 16.163 9 15.5C9 14.837 9.26339 14.2011 9.73223 13.7322C10.2011 13.2634 10.837 13 11.5 13V13ZM24.5 13C25.163 13 25.7989 13.2634 26.2678 13.7322C26.7366 14.2011 27 14.837 27 15.5C27 16.163 26.7366 16.7989 26.2678 17.2678C25.7989 17.7366 25.163 18 24.5 18C23.837 18 23.2011 17.7366 22.7322 17.2678C22.2634 16.7989 22 16.163 22 15.5C22 14.837 22.2634 14.2011 22.7322 13.7322C23.2011 13.2634 23.837 13 24.5 13V13ZM18 7C19.0609 7 20.0783 7.42143 20.8284 8.17157C21.5786 8.92172 22 9.93913 22 11C22 12.0609 21.5786 13.0783 20.8284 13.8284C20.0783 14.5786 19.0609 15 18 15C16.9391 15 15.9217 14.5786 15.1716 13.8284C14.4214 13.0783 14 12.0609 14 11C14 9.93913 14.4214 8.92172 15.1716 8.17157C15.9217 7.42143 16.9391 7 18 7V7Z" fill="white"/>
</g>
</g>
<defs>
<linearGradient id="paint0_linear_1235_477" x1="27.5" y1="31" x2="-3.20375e-07" y2="-6.5" gradientUnits="userSpaceOnUse">
<stop stop-color="#217BF4"/>
<stop offset="1" stop-color="#217BF4" stop-opacity="0"/>
</linearGradient>
<clipPath id="clip0_1235_477">
<rect width="35" height="35" fill="white"/>
</clipPath>
<clipPath id="clip1_1235_477">
<rect width="24" height="24" fill="white" transform="translate(6 5)"/>
</clipPath>
</defs>
</svg>
