<svg width="35" height="35" viewBox="0 0 35 35" fill="none" xmlns="http://www.w3.org/2000/svg">
<g clip-path="url(#clip0_1235_477)">
<circle cx="17.5" cy="17.5" r="17.5" fill="url(#paint0_linear_1235_477)"/>
<path d="M17.0833 19.7499H18.9167V21.5833H17.0833V19.7499ZM18.9167 18.242V18.8333H17.0833V17.4583C17.0833 17.2151 17.1799 16.982 17.3518 16.8101C17.5237 16.6382 17.7569 16.5416 18 16.5416C18.2604 16.5416 18.5155 16.4676 18.7355 16.3283C18.9555 16.189 19.1314 15.9901 19.2428 15.7547C19.3542 15.5193 19.3964 15.2571 19.3646 14.9987C19.3328 14.7402 19.2283 14.4961 19.0632 14.2948C18.8981 14.0934 18.6792 13.943 18.432 13.8612C18.1847 13.7794 17.9194 13.7695 17.6667 13.8326C17.4141 13.8957 17.1845 14.0292 17.0048 14.2177C16.8251 14.4061 16.7026 14.6417 16.6516 14.8971L14.8531 14.5368C14.9646 13.9796 15.2221 13.4619 15.5992 13.0368C15.9763 12.6117 16.4596 12.2943 16.9995 12.1171C17.5395 11.94 18.1169 11.9094 18.6725 12.0285C19.2282 12.1476 19.7423 12.4121 20.1623 12.795C20.5822 13.1779 20.8929 13.6655 21.0627 14.2078C21.2324 14.7502 21.2551 15.3279 21.1285 15.8819C21.0018 16.4359 20.7302 16.9463 20.3416 17.361C19.953 17.7756 19.4613 18.0797 18.9167 18.242V18.242ZM20.75 9.66659H11.5833V24.3333H24.4167V13.3333H20.75V9.66659ZM9.75 8.74259C9.75 8.24025 10.1598 7.83325 10.6658 7.83325H21.6667L26.25 12.4166V25.2435C26.2508 25.3639 26.228 25.4832 26.1827 25.5948C26.1374 25.7063 26.0706 25.8079 25.9861 25.8936C25.9015 25.9793 25.801 26.0475 25.6901 26.0944C25.5792 26.1412 25.4601 26.1657 25.3398 26.1666H10.6603C10.4195 26.1649 10.1891 26.0686 10.0188 25.8984C9.84847 25.7283 9.75192 25.498 9.75 25.2573V8.74259Z" fill="white"/>
</g>
<defs>
<linearGradient id="paint0_linear_1235_477" x1="27.5" y1="31" x2="-3.20375e-07" y2="-6.5" gradientUnits="userSpaceOnUse">
<stop stop-color="#217BF4"/>
<stop offset="1" stop-color="#217BF4" stop-opacity="0"/>
</linearGradient>
<clipPath id="clip0_1235_477">
<rect width="35" height="35" fill="white"/>
</clipPath>
</defs>
</svg>
