<svg width="35" height="35" viewBox="0 0 35 35" fill="none" xmlns="http://www.w3.org/2000/svg">
<g clip-path="url(#clip0_1235_477)">
<circle cx="17.5" cy="17.5" r="17.5" fill="url(#paint0_linear_1235_477)"/>
<path d="M27 9H13C12.4696 9 11.9609 9.21071 11.5858 9.58579C11.2107 9.96086 11 10.4696 11 11C11 11.5304 11.2107 12.0391 11.5858 12.4142C11.9609 12.7893 12.4696 13 13 13H27V26C27 26.2652 26.8946 26.5196 26.7071 26.7071C26.5196 26.8946 26.2652 27 26 27H13C11.9391 27 10.9217 26.5786 10.1716 25.8284C9.42143 25.0783 9 24.0609 9 23V11C9 9.93913 9.42143 8.92172 10.1716 8.17157C10.9217 7.42143 11.9391 7 13 7H26C26.2652 7 26.5196 7.10536 26.7071 7.29289C26.8946 7.48043 27 7.73478 27 8V9ZM26 12H13C12.7348 12 12.4804 11.8946 12.2929 11.7071C12.1054 11.5196 12 11.2652 12 11C12 10.7348 12.1054 10.4804 12.2929 10.2929C12.4804 10.1054 12.7348 10 13 10H26V12Z" fill="white"/>
</g>
<defs>
<linearGradient id="paint0_linear_1235_477" x1="27.5" y1="31" x2="-3.20375e-07" y2="-6.5" gradientUnits="userSpaceOnUse">
<stop stop-color="#217BF4"/>
<stop offset="1" stop-color="#217BF4" stop-opacity="0"/>
</linearGradient>
<clipPath id="clip0_1235_477">
<rect width="35" height="35" fill="white"/>
</clipPath>
</defs>
</svg>
