<svg width="15" height="13" viewBox="0 0 15 13" fill="none" xmlns="http://www.w3.org/2000/svg">
<path d="M11.0417 11.4583H12.4584V5.79167H8.20835V11.4583H9.62502V7.20833H11.0417V11.4583ZM1.12502 11.4583V0.833333C1.12502 0.645472 1.19965 0.465304 1.33249 0.332466C1.46532 0.199628 1.64549 0.125 1.83335 0.125H11.75C11.9379 0.125 12.1181 0.199628 12.2509 0.332466C12.3837 0.465304 12.4584 0.645472 12.4584 0.833333V4.375H13.875V11.4583H14.5834V12.875H0.416687V11.4583H1.12502ZM3.95835 5.79167V7.20833H5.37502V5.79167H3.95835ZM3.95835 8.625V10.0417H5.37502V8.625H3.95835ZM3.95835 2.95833V4.375H5.37502V2.95833H3.95835Z" fill="white"/>
</svg>
