<svg width="13" height="15" viewBox="0 0 13 15" fill="none" xmlns="http://www.w3.org/2000/svg">
<path d="M0.708333 0H12.0417C12.2295 0 12.4097 0.0746277 12.5425 0.207466C12.6754 0.340304 12.75 0.520472 12.75 0.708333V14.3622C12.7501 14.4213 12.7353 14.4794 12.7072 14.5314C12.679 14.5833 12.6382 14.6274 12.5887 14.6596C12.5391 14.6918 12.4823 14.711 12.4233 14.7156C12.3644 14.7202 12.3053 14.71 12.2513 14.6859L6.375 12.0629L0.498667 14.6852C0.444764 14.7093 0.385696 14.7195 0.326832 14.7149C0.267969 14.7104 0.211178 14.6912 0.161625 14.6591C0.112072 14.627 0.0713293 14.583 0.0431018 14.5312C0.0148744 14.4793 5.796e-05 14.4212 0 14.3622V0.708333C0 0.520472 0.0746277 0.340304 0.207466 0.207466C0.340304 0.0746277 0.520472 0 0.708333 0ZM11.3333 12.7252V1.41667H1.41667V12.7252L6.375 10.5124L11.3333 12.7252ZM6.375 8.14583L4.29321 9.24021L4.69058 6.92254L3.00687 5.28063L5.33446 4.94204L6.375 2.83333L7.41625 4.94204L9.74312 5.28063L8.05942 6.92254L8.45608 9.24021L6.375 8.14583Z" fill="white"/>
</svg>
