<svg width="15" height="17" viewBox="0 0 15 17" fill="none" xmlns="http://www.w3.org/2000/svg">
<path d="M6.70833 10.8749H8.29167V12.4583H6.70833V10.8749ZM8.29167 9.57263V10.0833H6.70833V8.89575C6.70833 8.68579 6.79174 8.48443 6.94021 8.33596C7.08867 8.18749 7.29004 8.10408 7.5 8.10408C7.7249 8.10407 7.94516 8.04019 8.13517 7.91989C8.32519 7.79958 8.47713 7.62779 8.57332 7.42451C8.66951 7.22122 8.706 6.9948 8.67854 6.77159C8.65108 6.54837 8.5608 6.33755 8.4182 6.16364C8.2756 5.98973 8.08656 5.85989 7.87305 5.78923C7.65954 5.71856 7.43036 5.70998 7.21217 5.76448C6.99398 5.81897 6.79575 5.93431 6.64054 6.09706C6.48534 6.25982 6.37954 6.4633 6.33546 6.68384L4.78221 6.37271C4.8785 5.89144 5.10086 5.44438 5.42656 5.07722C5.75226 4.71005 6.16962 4.43596 6.63597 4.28296C7.10231 4.12996 7.60093 4.10354 8.08083 4.20641C8.56074 4.30927 9.00472 4.53772 9.3674 4.8684C9.73008 5.19909 9.99844 5.62016 10.145 6.08855C10.2917 6.55695 10.3113 7.05587 10.2019 7.53433C10.0924 8.01278 9.85794 8.4536 9.52233 8.81173C9.18672 9.16985 8.76202 9.43243 8.29167 9.57263ZM9.875 2.16659H1.95833V14.8333H13.0417V5.33325H9.875V2.16659ZM0.375 1.36859C0.375 0.934752 0.728875 0.583252 1.16588 0.583252H10.6667L14.625 4.54158V15.6194C14.6257 15.7233 14.606 15.8264 14.5669 15.9228C14.5278 16.0191 14.47 16.1068 14.397 16.1808C14.3241 16.2548 14.2372 16.3138 14.1414 16.3542C14.0456 16.3947 13.9428 16.4159 13.8389 16.4166H1.16113C0.953216 16.4151 0.754222 16.332 0.607131 16.185C0.460039 16.0381 0.376658 15.8392 0.375 15.6313V1.36859Z" fill="white"/>
</svg>
