<svg width="106" height="107" viewBox="0 0 106 107" fill="none" xmlns="http://www.w3.org/2000/svg">
<g filter="url(#filter0_d_607_687)">
<path d="M79 9C68.5071 9 60 17.5071 60 28C60 38.4929 68.5071 47 79 47C89.4929 47 98 38.4929 98 28C98 17.5071 89.4857 9 79 9Z" fill="white"/>
</g>
<path d="M85.7068 32.1429C86.414 32.85 86.414 33.9929 85.7068 34.7C85.3568 35.0572 84.8926 35.2286 84.4283 35.2286C83.964 35.2286 83.4997 35.05 83.1497 34.7L78.9997 30.55L74.8497 34.7C74.4997 35.0572 74.0354 35.2286 73.5711 35.2286C73.1069 35.2286 72.6426 35.05 72.2926 34.7C71.5854 33.9929 71.5854 32.85 72.2926 32.1429L76.4426 27.9929L72.2926 23.8429C71.5854 23.1357 71.5854 21.9929 72.2926 21.2857C72.9997 20.5786 74.1426 20.5786 74.8497 21.2857L78.9997 25.4357L83.1497 21.2857C83.8569 20.5786 84.9997 20.5786 85.7068 21.2857C86.414 21.9929 86.414 23.1357 85.7068 23.8429L81.5568 27.9929L85.7068 32.1429Z" fill="#217BF4"/>
<defs>
<filter id="filter0_d_607_687" x="0" y="-51" width="158" height="158" filterUnits="userSpaceOnUse" color-interpolation-filters="sRGB">
<feFlood flood-opacity="0" result="BackgroundImageFix"/>
<feColorMatrix in="SourceAlpha" type="matrix" values="0 0 0 0 0 0 0 0 0 0 0 0 0 0 0 0 0 0 127 0" result="hardAlpha"/>
<feOffset/>
<feGaussianBlur stdDeviation="30"/>
<feComposite in2="hardAlpha" operator="out"/>
<feColorMatrix type="matrix" values="0 0 0 0 0.0470588 0 0 0 0 0.117647 0 0 0 0 0.356863 0 0 0 0.35 0"/>
<feBlend mode="normal" in2="BackgroundImageFix" result="effect1_dropShadow_607_687"/>
<feBlend mode="normal" in="SourceGraphic" in2="effect1_dropShadow_607_687" result="shape"/>
</filter>
</defs>
</svg>
