<svg width="89" height="91" viewBox="0 0 89 91" fill="none" xmlns="http://www.w3.org/2000/svg">
<g filter="url(#filter0_d_134_11781)">
<rect x="20" y="10.2212" width="48.9672" height="50.4808" rx="24" fill="url(#paint0_linear_134_11781)"/>
</g>
<path d="M37.5451 25.6633L39.1359 27.2694C38.2989 28.1122 37.6352 29.1138 37.1828 30.2165C36.7305 31.3191 36.4984 32.5012 36.5 33.6947C36.5 36.2049 37.5069 38.4765 39.1359 40.12L37.5463 41.7249C36.5 40.6716 35.6702 39.42 35.1045 38.0419C34.5388 36.6638 34.2484 35.1864 34.25 33.6947C34.2481 32.2028 34.5383 30.7253 35.1037 29.347C35.6692 27.9687 36.4989 26.7169 37.5451 25.6633ZM53.4549 25.6633C54.5011 26.7169 55.3308 27.9687 55.8963 29.347C56.4617 30.7253 56.7519 32.2028 56.75 33.6947C56.7519 35.1865 56.4617 36.6641 55.8963 38.0424C55.3308 39.4206 54.5011 40.6725 53.4549 41.7261L51.8641 40.12C52.7011 39.2771 53.3648 38.2756 53.8172 37.1729C54.2695 36.0703 54.5016 34.8882 54.5 33.6947C54.5 31.1845 53.4931 28.9129 51.8641 27.2694L53.4538 25.6645L53.4549 25.6633ZM40.7266 28.8754L42.3185 30.4826C41.9 30.9039 41.568 31.4046 41.3417 31.9558C41.1155 32.507 40.9993 33.098 41 33.6947C41 34.9498 41.504 36.0856 42.3185 36.9068L40.7266 38.514C40.0989 37.8818 39.6011 37.1306 39.2619 36.3035C38.9227 35.4764 38.7487 34.5899 38.75 33.6947C38.75 31.8126 39.506 30.1089 40.7266 28.8754ZM50.2734 28.8754C50.9011 29.5076 51.3989 30.2588 51.7381 31.0859C52.0773 31.9129 52.2513 32.7995 52.25 33.6947C52.2513 34.5899 52.0773 35.4764 51.7381 36.3035C51.3989 37.1306 50.9011 37.8818 50.2734 38.514L48.6815 36.9068C49.1 36.4855 49.432 35.9848 49.6583 35.4336C49.8845 34.8824 50.0007 34.2914 50 33.6947C50.0007 33.098 49.8845 32.507 49.6583 31.9558C49.432 31.4046 49.1 30.9039 48.6815 30.4826L50.2734 28.8754ZM45.5 35.9663C44.9033 35.9663 44.331 35.727 43.909 35.301C43.4871 34.875 43.25 34.2972 43.25 33.6947C43.25 33.0922 43.4871 32.5144 43.909 32.0884C44.331 31.6624 44.9033 31.4231 45.5 31.4231C46.0967 31.4231 46.669 31.6624 47.091 32.0884C47.5129 32.5144 47.75 33.0922 47.75 33.6947C47.75 34.2972 47.5129 34.875 47.091 35.301C46.669 35.727 46.0967 35.9663 45.5 35.9663ZM45.5 38.238C46.1525 38.238 46.7116 38.7071 46.832 39.3545L48.3125 47.3245H42.6875L44.168 39.3545C44.2884 38.7071 44.8475 38.238 45.5 38.238Z" fill="white"/>
<defs>
<filter id="filter0_d_134_11781" x="0" y="0.221191" width="88.9672" height="90.4807" filterUnits="userSpaceOnUse" color-interpolation-filters="sRGB">
<feFlood flood-opacity="0" result="BackgroundImageFix"/>
<feColorMatrix in="SourceAlpha" type="matrix" values="0 0 0 0 0 0 0 0 0 0 0 0 0 0 0 0 0 0 127 0" result="hardAlpha"/>
<feMorphology radius="2" operator="erode" in="SourceAlpha" result="effect1_dropShadow_134_11781"/>
<feOffset dy="10"/>
<feGaussianBlur stdDeviation="11"/>
<feColorMatrix type="matrix" values="0 0 0 0 0.97947 0 0 0 0 0.730307 0 0 0 0 0.328531 0 0 0 0.3 0"/>
<feBlend mode="normal" in2="BackgroundImageFix" result="effect1_dropShadow_134_11781"/>
<feBlend mode="normal" in="SourceGraphic" in2="effect1_dropShadow_134_11781" result="shape"/>
</filter>
<linearGradient id="paint0_linear_134_11781" x1="30.016" y1="10.2212" x2="54.5679" y2="60.1208" gradientUnits="userSpaceOnUse">
<stop stop-color="#FFD085"/>
<stop offset="1" stop-color="#FFAF2E"/>
</linearGradient>
</defs>
</svg>
