<svg width="26" height="26" viewBox="0 0 26 26" fill="none" xmlns="http://www.w3.org/2000/svg">
<path d="M18.3196 16.1947H17.2004L16.8038 15.8122C18.1921 14.1972 19.0279 12.1005 19.0279 9.81966C19.0279 4.73383 14.9054 0.611328 9.8196 0.611328C4.73377 0.611328 0.611267 4.73383 0.611267 9.81966C0.611267 14.9055 4.73377 19.028 9.8196 19.028C12.1004 19.028 14.1971 18.1922 15.8121 16.8038L16.1946 17.2005V18.3197L23.2779 25.3888L25.3888 23.278L18.3196 16.1947ZM9.8196 16.1947C6.2921 16.1947 3.4446 13.3472 3.4446 9.81966C3.4446 6.29216 6.2921 3.44466 9.8196 3.44466C13.3471 3.44466 16.1946 6.29216 16.1946 9.81966C16.1946 13.3472 13.3471 16.1947 9.8196 16.1947Z" fill="white"/>
</svg>
