<svg width="18" height="15" viewBox="0 0 18 15" fill="none" xmlns="http://www.w3.org/2000/svg">
<path d="M1.583 13.321C0.553 12.227 0 11 0 9.011C0 5.511 2.457 2.374 6.03 0.822998L6.923 2.201C3.588 4.005 2.936 6.346 2.676 7.822C3.213 7.544 3.916 7.447 4.605 7.511C6.409 7.678 7.831 9.159 7.831 11C7.831 11.9283 7.46225 12.8185 6.80587 13.4749C6.1495 14.1312 5.25926 14.5 4.331 14.5C3.258 14.5 2.232 14.01 1.583 13.321V13.321ZM11.583 13.321C10.553 12.227 10 11 10 9.011C10 5.511 12.457 2.374 16.03 0.822998L16.923 2.201C13.588 4.005 12.936 6.346 12.676 7.822C13.213 7.544 13.916 7.447 14.605 7.511C16.409 7.678 17.831 9.159 17.831 11C17.831 11.9283 17.4623 12.8185 16.8059 13.4749C16.1495 14.1312 15.2593 14.5 14.331 14.5C13.258 14.5 12.232 14.01 11.583 13.321V13.321Z" fill="#606060" fill-opacity="0.69"/>
</svg>
