<svg width="64" height="64" viewBox="0 0 64 64" fill="none" xmlns="http://www.w3.org/2000/svg">
<circle cx="32" cy="32" r="32" fill="white"/>
<circle cx="32" cy="32" r="31.5" stroke="#75A7EB" stroke-opacity="0.52"/>
<circle cx="32" cy="32" r="28" fill="#75A7EB" fill-opacity="0.52"/>
<g clip-path="url(#clip0_135_12704)">
<path d="M44 47.9166H20C19.6022 47.9166 19.2206 47.7542 18.9393 47.465C18.658 47.1759 18.5 46.7838 18.5 46.3749V18.6249C18.5 18.216 18.658 17.8239 18.9393 17.5348C19.2206 17.2457 19.6022 17.0833 20 17.0833H44C44.3978 17.0833 44.7794 17.2457 45.0607 17.5348C45.342 17.8239 45.5 18.216 45.5 18.6249V46.3749C45.5 46.7838 45.342 47.1759 45.0607 47.465C44.7794 47.7542 44.3978 47.9166 44 47.9166ZM42.5 44.8333V20.1666H21.5V44.8333H42.5ZM24.5 23.2499H30.5V29.4166H24.5V23.2499ZM24.5 32.4999H39.5V35.5833H24.5V32.4999ZM24.5 38.6666H39.5V41.7499H24.5V38.6666ZM33.5 24.7916H39.5V27.8749H33.5V24.7916Z" fill="white"/>
</g>
<path d="M40 48C40 43.5817 43.5817 40 48 40H56C60.4183 40 64 43.5817 64 48V56C64 60.4183 60.4183 64 56 64H48C43.5817 64 40 60.4183 40 56V48Z" fill="#217BF4"/>
<path d="M51.6666 57.9999C55.1644 57.9999 58 55.1644 58 51.6666C58 48.1688 55.1644 45.3333 51.6666 45.3333C48.1688 45.3333 45.3333 48.1688 45.3333 51.6666C45.3333 55.1644 48.1688 57.9999 51.6666 57.9999Z" stroke="white" stroke-width="2" stroke-linecap="round" stroke-linejoin="round"/>
<path d="M58.6666 58.6666L57.3333 57.3333" stroke="white" stroke-width="2" stroke-linecap="round" stroke-linejoin="round"/>
<defs>
<clipPath id="clip0_135_12704">
<rect width="36" height="37" fill="white" transform="translate(14 14)"/>
</clipPath>
</defs>
</svg>
