<svg width="64" height="64" viewBox="0 0 64 64" fill="none" xmlns="http://www.w3.org/2000/svg">
<circle cx="32" cy="32" r="32" fill="white"/>
<circle cx="32" cy="32" r="31.5" stroke="#75A7EB" stroke-opacity="0.52"/>
<circle cx="32" cy="32" r="28" fill="#75A7EB" fill-opacity="0.52"/>
<path d="M40.7559 25.655C40.6451 25.64 40.5342 25.64 40.4234 25.655C37.9692 25.58 36.0217 23.675 36.0217 21.335C36.0217 18.95 38.0642 17 40.5976 17C43.1151 17 45.1734 18.935 45.1734 21.335C45.1576 23.675 43.2101 25.58 40.7559 25.655Z" fill="white"/>
<path d="M45.9175 36.0501C44.1442 37.1751 41.6583 37.5951 39.3625 37.3101C39.9642 36.0801 40.2808 34.7151 40.2967 33.2751C40.2967 31.7751 39.9483 30.3501 39.2833 29.1051C41.6267 28.8051 44.1125 29.2251 45.9017 30.3501C48.4033 31.9101 48.4033 34.4751 45.9175 36.0501Z" fill="white"/>
<path d="M23.1967 25.655C23.3075 25.64 23.4184 25.64 23.5292 25.655C25.9834 25.58 27.9309 23.675 27.9309 21.335C27.9309 18.935 25.8884 17 23.355 17C20.8375 17 18.795 18.935 18.795 21.335C18.795 23.675 20.7425 25.58 23.1967 25.655Z" fill="white"/>
<path d="M23.3708 33.2749C23.3708 34.7299 23.7033 36.1099 24.3049 37.3549C22.0724 37.5799 19.7449 37.1299 18.0349 36.0649C15.5333 34.4899 15.5333 31.9249 18.0349 30.3499C19.7291 29.2699 22.1199 28.8349 24.3683 29.0749C23.7191 30.3349 23.3708 31.7599 23.3708 33.2749Z" fill="white"/>
<path d="M32.19 37.805C32.0633 37.79 31.9208 37.79 31.7783 37.805C28.865 37.715 26.5375 35.45 26.5375 32.66C26.5533 29.81 28.9758 27.5 32 27.5C35.0083 27.5 37.4466 29.81 37.4466 32.66C37.4308 35.45 35.1191 37.715 32.19 37.805Z" fill="white"/>
<path d="M27.0442 40.91C24.6534 42.425 24.6534 44.915 27.0442 46.415C29.7676 48.14 34.2326 48.14 36.9559 46.415C39.3467 44.9 39.3467 42.41 36.9559 40.91C34.2484 39.185 29.7834 39.185 27.0442 40.91Z" fill="white"/>
<path d="M40 48C40 43.5817 43.5817 40 48 40H56C60.4183 40 64 43.5817 64 48V56C64 60.4183 60.4183 64 56 64H48C43.5817 64 40 60.4183 40 56V48Z" fill="#217BF4"/>
<path d="M57.1934 53.9534C55.8201 55.32 53.8534 55.74 52.1267 55.2L48.9867 58.3334C48.7601 58.5667 48.3134 58.7067 47.9934 58.66L46.5401 58.46C46.0601 58.3934 45.6134 57.94 45.5401 57.46L45.3401 56.0067C45.2934 55.6867 45.4467 55.24 45.6667 55.0134L48.8001 51.88C48.2667 50.1467 48.6801 48.18 50.0534 46.8134C52.0201 44.8467 55.2134 44.8467 57.1867 46.8134C59.1601 48.78 59.1601 51.9867 57.1934 53.9534Z" fill="white"/>
<path d="M48.5934 55.6599L50.1267 57.1932" stroke="#217BF4" stroke-width="2" stroke-miterlimit="10" stroke-linecap="round" stroke-linejoin="round"/>
<path d="M53.6666 51.3333C54.2189 51.3333 54.6666 50.8855 54.6666 50.3333C54.6666 49.781 54.2189 49.3333 53.6666 49.3333C53.1143 49.3333 52.6666 49.781 52.6666 50.3333C52.6666 50.8855 53.1143 51.3333 53.6666 51.3333Z" fill="#217BF4" stroke="#217BF4" stroke-width="2" stroke-linecap="round" stroke-linejoin="round"/>
</svg>
