<svg width="64" height="64" viewBox="0 0 64 64" fill="none" xmlns="http://www.w3.org/2000/svg">
<circle cx="32" cy="32" r="32" fill="white"/>
<circle cx="32" cy="32" r="31.5" stroke="#75A7EB" stroke-opacity="0.52"/>
<circle cx="32" cy="32" r="28" fill="#75A7EB" fill-opacity="0.52"/>
<g clip-path="url(#clip0_135_12740)">
<path d="M44 48.6666H23.75C22.3576 48.6666 21.0223 48.052 20.0377 46.958C19.0531 45.8641 18.5 44.3803 18.5 42.8333V20.3333C18.5 19.0072 18.9741 17.7354 19.818 16.7977C20.6619 15.86 21.8065 15.3333 23 15.3333H44C44.3978 15.3333 44.7794 15.5088 45.0607 15.8214C45.342 16.134 45.5 16.5579 45.5 16.9999V46.9999C45.5 47.4419 45.342 47.8659 45.0607 48.1784C44.7794 48.491 44.3978 48.6666 44 48.6666ZM42.5 45.3333V40.3333H23.75C23.1533 40.3333 22.581 40.5966 22.159 41.0655C21.7371 41.5343 21.5 42.1702 21.5 42.8333C21.5 43.4963 21.7371 44.1322 22.159 44.601C22.581 45.0699 23.1533 45.3333 23.75 45.3333H42.5ZM29 18.6666V31.9999L34.25 28.6666L39.5 31.9999V18.6666H29Z" fill="white"/>
</g>
<path d="M40 48C40 43.5817 43.5817 40 48 40H56C60.4183 40 64 43.5817 64 48V56C64 60.4183 60.4183 64 56 64H48C43.5817 64 40 60.4183 40 56V48Z" fill="#217BF4"/>
<path d="M51.6666 57.9999C55.1644 57.9999 58 55.1644 58 51.6666C58 48.1688 55.1644 45.3333 51.6666 45.3333C48.1688 45.3333 45.3333 48.1688 45.3333 51.6666C45.3333 55.1644 48.1688 57.9999 51.6666 57.9999Z" stroke="white" stroke-width="2" stroke-linecap="round" stroke-linejoin="round"/>
<path d="M58.6666 58.6666L57.3333 57.3333" stroke="white" stroke-width="2" stroke-linecap="round" stroke-linejoin="round"/>
<defs>
<clipPath id="clip0_135_12740">
<rect width="36" height="40" fill="white" transform="translate(14 12)"/>
</clipPath>
</defs>
</svg>
